<svg width="60" height="57" viewBox="0 0 60 57" fill="none" xmlns="http://www.w3.org/2000/svg">
<path d="M47.5 44.9167C47.5 45.5577 47.7634 46.1724 48.2322 46.6256C48.7011 47.0788 49.337 47.3334 50 47.3334C50.663 47.3334 51.2989 47.0788 51.7678 46.6256C52.2366 46.1724 52.5 45.5577 52.5 44.9167V11.0834C52.5 10.4425 52.2366 9.82779 51.7678 9.37457C51.2989 8.92136 50.663 8.66675 50 8.66675C49.337 8.66675 48.7011 8.92136 48.2322 9.37457C47.7634 9.82779 47.5 10.4425 47.5 11.0834V44.9167ZM28.2425 16.0376C28.0101 16.262 27.8257 16.5286 27.6999 16.8219C27.574 17.1153 27.5093 17.4298 27.5093 17.7474C27.5093 18.065 27.574 18.3794 27.6999 18.6728C27.8257 18.9662 28.0101 19.2327 28.2425 19.4572L34.5825 25.5834H10C9.33696 25.5834 8.70107 25.838 8.23223 26.2912C7.76339 26.7445 7.5 27.3591 7.5 28.0001C7.5 28.641 7.76339 29.2557 8.23223 29.7089C8.70107 30.1621 9.33696 30.4167 10 30.4167H34.5825L28.2425 36.5454C27.7737 36.9989 27.5105 37.6138 27.5107 38.2549C27.511 38.8959 27.7746 39.5106 28.2437 39.9638C28.7129 40.4169 29.349 40.6714 30.0121 40.6712C30.6753 40.6709 31.3112 40.416 31.78 39.9626L42.385 29.7087C42.8537 29.2555 43.117 28.6409 43.117 28.0001C43.117 27.3593 42.8537 26.7447 42.385 26.2915L31.78 16.0376C31.5478 15.8129 31.2721 15.6346 30.9686 15.513C30.6651 15.3914 30.3398 15.3288 30.0113 15.3288C29.6827 15.3288 29.3574 15.3914 29.0539 15.513C28.7504 15.6346 28.4747 15.8129 28.2425 16.0376Z" fill="black"/>
</svg>
