<svg width="36" height="35" viewBox="0 0 36 35" fill="none" xmlns="http://www.w3.org/2000/svg">
<path d="M32.9113 34.9184H29.9273V31.1771C29.9249 29.524 29.1382 27.9391 27.7397 26.7702C26.3412 25.6013 24.4451 24.9437 22.4674 24.9417H13.5154C11.5377 24.9437 9.64158 25.6013 8.24309 26.7702C6.84459 27.9391 6.05787 29.524 6.05551 31.1771V34.9184H3.07153V31.1771C3.07469 28.8627 4.17604 26.6438 6.13397 25.0073C8.0919 23.3707 10.7465 22.4502 13.5154 22.4475H22.4674C25.2363 22.4502 27.8909 23.3707 29.8488 25.0073C31.8067 26.6438 32.9081 28.8627 32.9113 31.1771V34.9184Z" fill="#5285F2"/>
<path d="M1.57963 4.98828C1.18393 4.98828 0.804442 5.11967 0.52464 5.35355C0.244838 5.58742 0.0876465 5.90462 0.0876465 6.23537V17.4592H3.07162V6.23537C3.07162 5.90462 2.91443 5.58742 2.63463 5.35355C2.35483 5.11967 1.97533 4.98828 1.57963 4.98828Z" fill="#5285F2"/>
<path d="M0.0876465 0V2.49418H7.54758V11.2238C7.54758 13.539 8.64791 15.7595 10.6065 17.3966C12.5651 19.0337 15.2216 19.9534 17.9915 19.9534C20.7614 19.9534 23.4178 19.0337 25.3764 17.3966C27.335 15.7595 28.4354 13.539 28.4354 11.2238V2.49418H35.8953V0H0.0876465ZM10.5315 2.49418H25.4514V6.23545H10.5315V2.49418ZM17.9915 17.4593C16.013 17.4593 14.1155 16.8023 12.7165 15.6329C11.3175 14.4636 10.5315 12.8775 10.5315 11.2238V8.72963H25.4514V11.2238C25.4514 12.8775 24.6655 14.4636 23.2664 15.6329C21.8674 16.8023 19.97 17.4593 17.9915 17.4593Z" fill="#5285F2"/>
</svg>
