<svg width="30" height="36" viewBox="0 0 30 36" fill="none" xmlns="http://www.w3.org/2000/svg">
<path d="M27.4359 35.1692H24.9418V31.4133C24.9398 29.7537 24.2822 28.1626 23.1132 26.9891C21.9443 25.8155 20.3594 25.1554 18.7063 25.1534H11.2238C9.57063 25.1554 7.98577 25.8155 6.81683 26.9891C5.64788 28.1626 4.9903 29.7537 4.98832 31.4133V35.1692H2.49414V31.4133C2.49678 29.0898 3.41736 26.8622 5.05391 25.2192C6.69046 23.5762 8.90934 22.6521 11.2238 22.6494H18.7063C21.0207 22.6521 23.2396 23.5762 24.8762 25.2192C26.5127 26.8622 27.4333 29.0898 27.4359 31.4133V35.1692Z" fill="#5285F2"/>
<path d="M1.24709 5.12183C0.916341 5.12183 0.599139 5.25373 0.365264 5.48852C0.13139 5.72331 0 6.04176 0 6.37381V17.6416H2.49418V6.37381C2.49418 6.04176 2.36279 5.72331 2.12891 5.48852C1.89504 5.25373 1.57784 5.12183 1.24709 5.12183Z" fill="#5285F2"/>
<path d="M0 0.11377V2.61773H6.23545V11.3816C6.23545 13.7059 7.15517 15.935 8.79229 17.5786C10.4294 19.2221 12.6498 20.1454 14.9651 20.1454C17.2803 20.1454 19.5007 19.2221 21.1378 17.5786C22.775 15.935 23.6947 13.7059 23.6947 11.3816V2.61773H29.9301V0.11377H0ZM8.72962 2.61773H21.2005V6.37367H8.72962V2.61773ZM14.9651 17.6415C13.3113 17.6415 11.7253 16.982 10.5559 15.808C9.38657 14.634 8.72962 13.0418 8.72962 11.3816V8.87763H21.2005V11.3816C21.2005 13.0418 20.5436 14.634 19.3742 15.808C18.2048 16.982 16.6188 17.6415 14.9651 17.6415Z" fill="#5285F2"/>
</svg>
