<svg width="24" height="28" viewBox="0 0 24 28" fill="none" xmlns="http://www.w3.org/2000/svg">
<path fill-rule="evenodd" clip-rule="evenodd" d="M9.50335 24.8874C10.1755 25.639 11.0383 26.0519 11.9336 26.0519H11.9349C12.834 26.0519 13.7008 25.639 14.3742 24.8861C14.7349 24.4862 15.3499 24.4536 15.7482 24.8144C16.1479 25.1752 16.1803 25.794 15.8209 26.1939C14.7725 27.3623 13.3933 28.0058 11.9349 28.0058H11.9323C10.4778 28.0045 9.10112 27.361 8.05663 26.1926C7.69722 25.7927 7.72966 25.1739 8.12929 24.8144C8.52892 24.4523 9.14394 24.4849 9.50335 24.8874ZM11.9982 0C17.7656 0 21.64 4.50958 21.64 8.72087C21.64 10.8871 22.1888 11.8054 22.7714 12.7798C23.3475 13.7411 24.0001 14.8326 24.0001 16.8959C23.5473 22.1675 18.0653 22.5974 11.9982 22.5974C5.93105 22.5974 0.447796 22.1675 0.000139245 16.9793C-0.00373594 14.8326 0.648909 13.7411 1.225 12.7798L1.42838 12.4361C1.92913 11.5721 2.35643 10.6322 2.35643 8.72087C2.35643 4.50958 6.23078 0 11.9982 0ZM11.9982 1.95389C7.46341 1.95389 4.30269 5.52039 4.30269 8.72087C4.30269 11.429 3.55402 12.6808 2.8923 13.7854C2.36162 14.6724 1.94252 15.3732 1.94252 16.8959C2.15921 19.3526 3.7746 20.6435 11.9982 20.6435C20.1764 20.6435 21.8424 19.2953 22.0578 16.8113C22.0539 15.3732 21.6348 14.6724 21.1041 13.7854C20.4424 12.6808 19.6937 11.429 19.6937 8.72087C19.6937 5.52039 16.533 1.95389 11.9982 1.95389Z" fill="#0077FF"/>
</svg>
