<svg width="34" height="34" viewBox="0 0 34 34" fill="none" xmlns="http://www.w3.org/2000/svg">
<path d="M16.9292 25.4999C17.425 25.4999 17.8444 25.3285 18.1872 24.9857C18.53 24.6428 18.701 24.224 18.7 23.7291C18.6991 23.2342 18.5282 22.8149 18.1872 22.4711C17.8463 22.1273 17.4269 21.9564 16.9292 21.9583C16.4315 21.9601 16.0126 22.1316 15.6726 22.4725C15.3326 22.8135 15.1612 23.2323 15.1584 23.7291C15.1555 24.2259 15.327 24.6452 15.6726 24.9871C16.0183 25.329 16.4372 25.4999 16.9292 25.4999ZM15.6542 20.0458H18.275C18.275 19.2666 18.3638 18.6527 18.5414 18.2041C18.7189 17.7555 19.2204 17.1416 20.0459 16.3624C20.6598 15.7485 21.1438 15.1639 21.498 14.6086C21.8521 14.0533 22.0292 13.3865 22.0292 12.6083C22.0292 11.286 21.5452 10.2708 20.5771 9.56243C19.6091 8.85409 18.4639 8.49993 17.1417 8.49993C15.7959 8.49993 14.7041 8.85409 13.8664 9.56243C13.0287 10.2708 12.444 11.1208 12.1125 12.1124L14.45 13.0333C14.5681 12.6083 14.834 12.1478 15.2476 11.652C15.6613 11.1562 16.2927 10.9083 17.1417 10.9083C17.8973 10.9083 18.4639 11.1151 18.8417 11.5288C19.2195 11.9424 19.4084 12.3967 19.4084 12.8916C19.4084 13.3638 19.2667 13.8068 18.9834 14.2204C18.7 14.6341 18.3459 15.0175 17.9209 15.3708C16.882 16.2916 16.2445 16.9881 16.0084 17.4603C15.7723 17.9326 15.6542 18.7944 15.6542 20.0458ZM17 31.1666C15.0403 31.1666 13.1987 30.795 11.475 30.0517C9.75143 29.3084 8.25213 28.2988 6.97713 27.0228C5.70213 25.7469 4.69299 24.2476 3.94971 22.5249C3.20643 20.8023 2.83432 18.9606 2.83338 16.9999C2.83243 15.0393 3.20454 13.1976 3.94971 11.4749C4.69488 9.75226 5.70402 8.25295 6.97713 6.97701C8.25024 5.70106 9.74954 4.69193 11.475 3.94959C13.2005 3.20726 15.0422 2.83515 17 2.83326C18.9579 2.83137 20.7995 3.20348 22.525 3.94959C24.2505 4.6957 25.7499 5.70484 27.023 6.97701C28.2961 8.24918 29.3057 9.74848 30.0518 11.4749C30.7979 13.2014 31.1695 15.043 31.1667 16.9999C31.1639 18.9568 30.7918 20.7985 30.0504 22.5249C29.309 24.2514 28.2999 25.7507 27.023 27.0228C25.7461 28.295 24.2468 29.3046 22.525 30.0517C20.8033 30.7987 18.9617 31.1704 17 31.1666ZM17 28.3333C20.1639 28.3333 22.8438 27.2353 25.0396 25.0395C27.2355 22.8437 28.3334 20.1638 28.3334 16.9999C28.3334 13.836 27.2355 11.1562 25.0396 8.96034C22.8438 6.76451 20.1639 5.66659 17 5.66659C13.8362 5.66659 11.1563 6.76451 8.96046 8.96034C6.76463 11.1562 5.66671 13.836 5.66671 16.9999C5.66671 20.1638 6.76463 22.8437 8.96046 25.0395C11.1563 27.2353 13.8362 28.3333 17 28.3333Z" fill="#699BF7"/>
</svg>
