<svg width="32" height="32" viewBox="0 0 32 32" fill="none" xmlns="http://www.w3.org/2000/svg">
<path d="M7.667 27.503L2 22.448L3.331 20.956L8.972 25.987L16.662 18.542C17.0204 18.1956 17.499 18.0014 17.9974 17.9999C18.4958 17.9984 18.9755 18.1898 19.336 18.534L22.96 21.998L28.54 16.025L30 17.39L24.419 23.365C24.2387 23.558 24.022 23.7132 23.7812 23.8218C23.5405 23.9304 23.2807 23.9902 23.0167 23.9976C22.7527 24.005 22.4899 23.96 22.2435 23.8652C21.997 23.7703 21.7719 23.6275 21.581 23.445L18.004 20.026L10.338 27.446C9.98205 27.7907 9.5089 27.9881 9.0135 27.9985C8.51809 28.0089 8.03708 27.8325 7.667 27.503ZM30 11H26L28 8L30 11ZM22 4H18V6H22V8H19V10H22V12H18V14H22C22.5302 13.9992 23.0384 13.7882 23.4133 13.4133C23.7882 13.0384 23.9992 12.5302 24 12V6C24 5.46957 23.7893 4.96086 23.4142 4.58579C23.0391 4.21071 22.5304 4 22 4ZM16 14H10V10C10 9.46957 10.2107 8.96086 10.5858 8.58579C10.9609 8.21071 11.4696 8 12 8H14V6H10V4H14C14.5304 4 15.0391 4.21071 15.4142 4.58579C15.7893 4.96086 16 5.46957 16 6V8C16 8.53043 15.7893 9.03914 15.4142 9.41421C15.0391 9.78929 14.5304 10 14 10H12V12H16V14ZM6 12V4H4V5H2V7H4V12H2V14H8V12H6Z" fill="#8A8A8A"/>
</svg>
