<svg width="27" height="27" viewBox="0 0 27 27" fill="none" xmlns="http://www.w3.org/2000/svg">
<path fill-rule="evenodd" clip-rule="evenodd" d="M13.4909 0C17.0969 0 20.4858 1.402 23.0313 3.9487C28.2929 9.21029 28.2929 17.7704 23.0313 23.032C20.452 25.6126 16.979 26.9782 13.4608 26.9782C11.5429 26.9782 9.61249 26.5728 7.80633 25.7368C7.27414 25.5235 6.77585 25.3226 6.41813 25.3226C6.00644 25.3252 5.45292 25.5159 4.91823 25.7004C3.82123 26.077 2.45562 26.5464 1.44523 25.5398C0.438596 24.5319 0.903002 23.1701 1.27704 22.0743C1.46154 21.5346 1.65107 20.9773 1.65107 20.5556C1.65107 20.2092 1.48414 19.7674 1.22809 19.131C-1.12281 14.0539 -0.0358506 7.93506 3.95176 3.94996C6.49721 1.40326 9.88485 0 13.4909 0ZM13.4922 1.88272C10.3882 1.88272 7.47246 3.09018 5.28222 5.28167C1.85064 8.71074 0.916808 13.9761 2.95643 18.3854C3.25013 19.1122 3.5338 19.8201 3.5338 20.5556C3.5338 21.2899 3.28151 22.0291 3.05935 22.6818C2.8761 23.219 2.59871 24.0298 2.77694 24.2081C2.95141 24.3888 3.76725 24.1039 4.30571 23.9194C4.95212 23.6985 5.68512 23.4449 6.41185 23.4399C7.13984 23.4399 7.82641 23.7161 8.55314 24.0085C13.0052 26.067 18.2705 25.1306 21.7008 21.7015C26.2269 17.173 26.2269 9.80649 21.7008 5.28042C19.5093 3.08892 16.5949 1.88272 13.4922 1.88272ZM18.4461 12.7557C19.1389 12.7557 19.7013 13.3168 19.7013 14.0109C19.7013 14.705 19.1389 15.266 18.4461 15.266C17.7533 15.266 17.1859 14.705 17.1859 14.0109C17.1859 13.3168 17.742 12.7557 18.4348 12.7557H18.4461ZM13.4145 12.7557C14.1073 12.7557 14.6696 13.3168 14.6696 14.0109C14.6696 14.705 14.1073 15.266 13.4145 15.266C12.7216 15.266 12.1543 14.705 12.1543 14.0109C12.1543 13.3168 12.7091 12.7557 13.4032 12.7557H13.4145ZM8.38231 12.7557C9.07516 12.7557 9.63746 13.3168 9.63746 14.0109C9.63746 14.705 9.07516 15.266 8.38231 15.266C7.68947 15.266 7.12214 14.705 7.12214 14.0109C7.12214 13.3168 7.67818 12.7557 8.37102 12.7557H8.38231Z" fill="#8A8A8A"/>
</svg>
