<svg width="25" height="27" viewBox="0 0 25 27" fill="none" xmlns="http://www.w3.org/2000/svg">
<path d="M8.72997 24.7018V20.6784C8.72997 19.6514 9.56865 18.8188 10.6032 18.8188H14.385C14.8818 18.8188 15.3583 19.0147 15.7096 19.3635C16.0609 19.7122 16.2582 20.1852 16.2582 20.6784V24.7018C16.2551 25.1287 16.4238 25.5393 16.7268 25.8423C17.0298 26.1454 17.4422 26.3158 17.8723 26.3158H20.4524C21.6574 26.3189 22.8141 25.8458 23.6673 25.0011C24.5205 24.1563 25 23.0092 25 21.8129V10.3511C25 9.38482 24.5685 8.46821 23.8219 7.84825L15.0448 0.889301C13.518 -0.33084 11.3304 -0.291445 9.8492 0.982867L1.27238 7.84825C0.490448 8.44994 0.0230951 9.36926 0 10.3511V21.8012C0 24.2945 2.03603 26.3158 4.5476 26.3158H7.0688C7.96214 26.3158 8.68815 25.6003 8.69463 24.7135L8.72997 24.7018Z" fill="#0077FF"/>
</svg>
