<svg width="28" height="27" viewBox="0 0 28 27" fill="none" xmlns="http://www.w3.org/2000/svg">
<path d="M14 27C10.4222 27 7.30489 25.8565 4.648 23.5695C1.99111 21.2825 0.467704 18.426 0.0777777 15H3.26667C3.62963 17.6 4.82896 19.75 6.86467 21.45C8.90037 23.15 11.2788 24 14 24C17.0333 24 19.6067 22.9815 21.7202 20.9445C23.8337 18.9075 24.8899 16.426 24.8889 13.5C24.8878 10.574 23.8316 8.093 21.7202 6.057C19.6088 4.021 17.0354 3.002 14 3C12.2111 3 10.5389 3.4 8.98333 4.2C7.42778 5 6.11852 6.1 5.05555 7.5H9.33333V10.5H0V1.5H3.11111V5.025C4.43333 3.425 6.04748 2.1875 7.95355 1.3125C9.85963 0.4375 11.8751 0 14 0C15.9444 0 17.766 0.3565 19.4647 1.0695C21.1633 1.7825 22.6411 2.7445 23.898 3.9555C25.1549 5.1665 26.153 6.5915 26.8924 8.2305C27.6318 9.8695 28.001 11.626 28 13.5C27.999 15.374 27.6298 17.1305 26.8924 18.7695C26.1551 20.4085 25.157 21.8335 23.898 23.0445C22.639 24.2555 21.1613 25.218 19.4647 25.932C17.7681 26.646 15.9465 27.002 14 27ZM18.3556 19.8L12.4444 14.1V6H15.5556V12.9L20.5333 17.7L18.3556 19.8Z" fill="#8A8A8A"/>
</svg>
